# xmcd CD database file
#
# Track frame offsets:
#	150
#	14829
#	30599
#	51223
#	74193
#	95876
#	112679
#	125437
#	139560
#	153399
#	167238
#	181278
#	198974
#	214325
#
# Disc length: 3056 seconds
#
# Revision: 0
# Processed by: cddbd v1.5.2PL0 Copyright (c) Steve Scherf et al.
# Submitted via: CDex 1.70beta2
#
DISCID=ce0bee0e
DTITLE=Bakken, Rebekka - Morning Hours
DYEAR=2009
DGENRE=Jazz
TTITLE0=Not A Woman
TTITLE1=Sometimes
TTITLE2=Ghost In This House
TTITLE3=Powder Room Collapse
TTITLE4=No Easy Way
TTITLE5=To Be Your Lover
TTITLE6=If You Don't Ask For More
TTITLE7=I Can Always Forget
TTITLE8=Starlight Of Your Heart
TTITLE9=Contents Of My Heart
TTITLE10=October Nights
TTITLE11=Like Cologne
TTITLE12=In The Early Morning Hours
TTITLE13=Nothing For You
EXTD=YEAR: 2009
EXTT0=
EXTT1=
EXTT2=
EXTT3=
EXTT4=
EXTT5=
EXTT6=
EXTT7=
EXTT8=
EXTT9=
EXTT10=
EXTT11=
EXTT12=
EXTT13=
PLAYORDER=
